<svg width="894" height="894" viewBox="0 0 894 894" fill="none" xmlns="http://www.w3.org/2000/svg">
<g clip-path="url(#clip0_2_2)">
<path fill-rule="evenodd" clip-rule="evenodd" d="M638.811 1089.93C632.459 1100.93 618.393 1104.7 607.392 1098.35L-119.203 678.847C-130.204 672.495 -133.973 658.429 -127.622 647.428L277.378 -54.0525C283.73 -65.0533 297.796 -68.8224 308.797 -62.4711L1035.39 357.029C1046.39 363.38 1050.16 377.447 1043.81 388.447L638.811 1089.93ZM428.908 317.49C417.908 311.138 403.841 314.908 397.49 325.908L317.49 464.472C311.138 475.473 314.908 489.54 325.908 495.891L464.472 575.891C475.473 582.242 489.54 578.473 495.891 567.472L575.891 428.908C582.242 417.908 578.473 403.841 567.472 397.49L428.908 317.49Z" fill="url(#paint0_linear_2_2)"/>
<g clip-path="url(#clip1_2_2)">
<path d="M672.153 745.108L662.923 734.389C662.829 733.914 662.727 733.44 662.601 732.97C658.862 719.016 640.931 710.038 613.804 706.271L616.098 714.832C613.468 714.524 610.748 714.268 607.932 714.07L606.862 710.079C568.664 706.829 514.679 712.738 456.764 728.256C406.164 741.814 361.824 760.226 330.45 779.276L334.176 793.18L334.175 793.181L329.666 776.352C297.771 796.795 280.284 818.008 284.853 835.058C285.573 837.746 286.823 840.248 288.559 842.566L286.704 849.852C286.704 849.852 284.849 854.312 291.951 860.771C298.214 866.467 327.569 887.465 343.032 898.436C349.989 904.321 354.586 907.862 354.768 907.352C355.054 906.544 347.827 893.932 333.71 881.116C326.83 874.046 318.323 864.514 312.808 857.268C323.697 860.676 385.775 873.607 497.291 843.606C611.261 812.946 652.355 763.622 656.613 757.265C656.765 765.607 654.365 783.209 652.051 795.755C647.614 814.001 648.175 828.701 648.764 829.278C649.137 829.641 650.876 824.258 653.263 815.651C659.554 798.379 671.42 765.446 673.383 757.341C675.606 748.153 672.153 745.108 672.153 745.108Z" fill="#A52B00"/>
<path d="M706.576 735.811L659.879 717.488C659.17 716.307 658.461 715.124 657.742 713.956L665.569 691.94C666.37 689.7 665.975 687.172 664.549 685.244C663.123 683.326 660.852 682.287 658.552 682.499L635.912 684.62C634.612 683.13 633.281 681.676 631.949 680.238L635.457 656.935C635.822 654.559 634.965 652.141 633.206 650.545C631.45 648.939 629.049 648.368 626.836 649.056L605.073 655.745C603.538 654.565 601.988 653.404 600.422 652.276L599.48 628.559C599.384 626.152 598.1 623.947 596.079 622.72C594.069 621.498 591.605 621.428 589.578 622.542L569.584 633.55C567.87 632.694 566.136 631.86 564.393 631.055L559.011 607.89C558.471 605.544 556.798 603.625 554.595 602.833C552.391 602.032 549.984 602.468 548.212 603.976L530.791 618.838C528.935 618.344 527.073 617.862 525.2 617.414L515.61 595.736C514.637 593.54 512.644 591.987 510.344 591.651C508.048 591.307 505.771 592.228 504.332 594.072L490.113 612.224C488.203 612.111 486.292 612.024 484.367 611.966L470.944 592.568C469.578 590.59 467.348 589.466 465.032 589.602C462.726 589.741 460.679 591.102 459.618 593.206L449.131 614.016C447.264 614.293 445.399 614.589 443.539 614.918L426.734 598.488C425.033 596.825 422.64 596.175 420.408 596.773C418.183 597.37 416.431 599.129 415.797 601.419L409.456 624.051C407.679 624.696 405.909 625.375 404.156 626.067L384.669 613.288C382.696 611.998 380.235 611.844 378.174 612.876C376.105 613.921 374.732 616.004 374.542 618.399L372.611 641.911C370.975 642.923 369.364 643.958 367.763 645.008L346.379 636.395C344.203 635.515 341.77 635.857 339.952 637.307C338.135 638.747 337.179 641.09 337.437 643.477L339.968 667.047C338.573 668.371 337.199 669.714 335.836 671.076L313.321 666.915C311.033 666.491 308.719 667.324 307.22 669.117C305.711 670.904 305.219 673.403 305.925 675.704L312.844 698.457C311.74 700.026 310.658 701.613 309.594 703.214L286.779 703.677C284.464 703.731 282.366 705.018 281.232 707.083C280.092 709.157 280.088 711.707 281.204 713.841L292.237 734.854C291.457 736.616 290.692 738.391 289.955 740.18L267.764 745.269C265.529 745.797 263.709 747.474 262.989 749.744C262.264 752.006 262.738 754.527 264.232 756.404L278.927 774.83C278.492 776.742 278.066 778.666 277.679 780.608L257.013 790.091C254.912 791.052 253.47 793.086 253.19 795.467C252.919 797.85 253.853 800.233 255.657 801.776L273.445 816.928C273.434 817.283 273.432 817.638 273.422 817.993L247.534 866.232C247.534 866.232 243.15 872.076 253.974 880.151C263.52 887.275 309.699 913.281 334.047 926.862C344.759 934.2 351.93 938.599 352.377 937.933C353.082 936.876 343.6 920.845 322.079 904.821C304.8 889.901 281.203 866.155 284.107 861.911C284.107 861.911 286.935 855.307 294.489 849.075C294.096 848.913 294.871 849.243 294.489 849.075C294.489 849.075 498.592 884.334 644.951 756.691C663.269 748.076 677.687 755.282 677.687 755.282C682.329 756.538 679.655 788.173 676.216 809.561C670.391 834.362 673.218 851.739 674.362 852.061C675.085 852.267 677.589 844.679 680.876 832.791C690.204 808 707.747 760.803 710.322 749.79C713.241 737.305 706.576 735.811 706.576 735.811Z" fill="#F74C00"/>
<path d="M624.285 746.32C624.285 746.32 650.092 738.104 675.053 693.959L677.018 681.837C677.018 681.837 609.518 643.025 682.516 584.19C682.516 584.19 678.445 598.002 692.86 643.289C692.86 643.289 715.502 627.911 711.97 585.442C711.97 585.442 761.281 623.787 697.39 689.261C697.39 689.261 677.082 756.054 625.361 764.036L624.285 746.32Z" fill="#F74C00"/>
<path d="M497.075 745.07C497.075 745.07 509.891 720.299 533.375 735.344C533.375 735.344 554.749 758.068 544.044 775.16C544.044 775.16 525.688 799.993 507.744 784.886C507.744 784.886 488.276 774.455 497.075 745.07Z" fill="black"/>
<path d="M520.068 746.825C522.145 754.576 519.268 762.083 513.642 763.591C508.016 765.098 501.771 760.035 499.694 752.284C497.617 744.532 500.494 737.024 506.119 735.517C511.746 734.01 517.991 739.072 520.068 746.825Z" fill="white"/>
<path d="M414.614 761.34C414.614 761.34 442.046 739.19 458.802 767.734C458.802 767.734 477.329 801.273 443.404 812.536C443.404 812.536 397.179 815.833 414.614 761.34Z" fill="black"/>
<path d="M433.821 770.48C435.963 778.474 432.997 786.217 427.194 787.772C421.393 789.326 414.951 784.104 412.809 776.11C410.667 768.114 413.635 760.372 419.436 758.818C425.238 757.263 431.679 762.484 433.821 770.48Z" fill="white"/>
<path d="M472.592 818.177L511.44 804.347C511.44 804.347 511.81 811.109 507.917 817.303C507.917 817.303 498.281 835.961 478.261 823.913C478.261 823.913 474.955 821.829 472.592 818.177Z" fill="black"/>
<path d="M303.753 823.962C303.425 824.05 303.11 824.16 302.797 824.272C289.118 824.787 250.349 825.038 236.659 812.257C236.659 812.257 270.531 743.632 184.807 728.538L210.151 787.631C210.151 787.631 182.444 778.199 168.221 745.397C168.221 745.397 122.156 802.318 215.296 820.085C215.296 820.085 230.318 846.231 308.142 849.45L308.138 849.222C308.896 849.162 309.658 849.044 310.419 848.84C317.204 847.022 321.213 839.98 319.372 833.109C317.531 826.239 310.538 822.144 303.753 823.962Z" fill="#F74C00"/>
</g>
</g>
<defs>
<linearGradient id="paint0_linear_2_2" x1="547" y1="978.5" x2="389.5" y2="-206" gradientUnits="userSpaceOnUse">
<stop stop-color="#4D4A46"/>
<stop offset="1" stop-color="#FF8650"/>
</linearGradient>
<clipPath id="clip0_2_2">
<rect x="327" width="654" height="654" rx="19" transform="rotate(30 327 0)" fill="white"/>
</clipPath>
<clipPath id="clip1_2_2">
<rect width="610.472" height="407.685" fill="white" transform="translate(110.305 632.307) rotate(-15)"/>
</clipPath>
</defs>
</svg>
