<svg width="242" height="119" viewBox="0 0 242 119" fill="none" xmlns="http://www.w3.org/2000/svg">
<path d="M90.44 74.8L117.47 119H84.32L59.84 77.01H27.54V119H0V0H65.45C91.8 0 111.18 10.54 111.18 38.42C111.18 54.4 102.51 65.62 90.44 71.74V74.8ZM67.49 25.84H27.54V51.17H67.49C78.03 51.17 83.47 46.24 83.47 38.42C83.47 30.09 78.03 25.84 67.49 25.84ZM193.584 119H157.034L108.754 0H138.504L173.524 93.16H176.754L211.944 0H241.694L193.584 119Z" fill="url(#paint0_linear_9_5)"/>
<defs>
<linearGradient id="paint0_linear_9_5" x1="1.1333" y1="9.03239" x2="189.02" y2="101.109" gradientUnits="userSpaceOnUse">
<stop stop-color="#FF6C6C"/>
<stop offset="0.235577" stop-color="#FFA268"/>
<stop offset="0.480769" stop-color="#FFE96B"/>
<stop offset="0.754808" stop-color="#6BFFFF"/>
<stop offset="1" stop-color="#C869FF"/>
</linearGradient>
</defs>
</svg>
